<?xml version="1.0" encoding="utf-8"?>
<!-- Generator: Adobe Illustrator 19.0.0, SVG Export Plug-In . SVG Version: 6.00 Build 0)  -->
<svg version="1.1" id="ulduo" xmlns="http://www.w3.org/2000/svg" xmlns:xlink="http://www.w3.org/1999/xlink" x="0px" y="0px"
	 viewBox="-301 212.1 188.3 188.9" style="enable-background:new -301 212.1 188.3 188.9;" xml:space="preserve">
<style type="text/css">
	.st0{fill:none;stroke:#66CAD7;stroke-width:8;stroke-miterlimit:10;}
</style>
<g id="XMLID_6_">
	<g id="XMLID_2_">
		<path id="XMLID_12_" class="st0" d="M-157.4,265.6h-8.8v80.5c0-27,0-54.1,0-81.1l0,0v-8.2c0-22.5-18.2-40.7-40.6-40.7l0,0
			c-22.5,0-40.7,18.2-40.7,40.7v8.8h-8.8c-22.5,0-40.7,18.2-40.7,40.6l0,0c0,22.5,18.2,40.7,40.7,40.7h8.8v-81.3
			c0,27.3,0,54.6,0,81.9c13.7,0,27.5,0,41.2,0c13.4,0,26.7,0,40.1,0c0-0.2,0-0.4,0-0.6h8.8c22.5,0,40.7-18.2,40.7-40.7l0,0
			C-116.7,283.8-134.9,265.6-157.4,265.6z M-206.8,343c-16.6,0.3-37.9-27.9-40.6-77.4h81.3C-169.7,314.8-190.4,342.7-206.8,343z"/>
		<path id="XMLID_13_" class="st0" d="M-247.5,356.3c0,22.5,18.2,40.7,40.7,40.7l0,0c22.5,0,40.7-18.2,40.7-40.7v-8.8h-81.4V356.3z"
			/>
	</g>
	<path id="XMLID_4_" class="st0" d="M-136.1,338.7"/>
</g>
</svg>
