<?xml version="1.0" encoding="utf-8"?>
<!-- Generator: Adobe Illustrator 19.0.0, SVG Export Plug-In . SVG Version: 6.00 Build 0)  -->
<svg version="1.1" id="ulduo" xmlns="http://www.w3.org/2000/svg" xmlns:xlink="http://www.w3.org/1999/xlink" x="0px" y="0px"
	 viewBox="0 0 329.4 188.9" style="enable-background:new 0 0 329.4 188.9;" xml:space="preserve">
<style type="text/css">
	.st0{fill:none;stroke:#66CAD7;stroke-width:8;stroke-miterlimit:10;}
	.st1{fill:#66CAD7;}
	.st2{font-family:'Calibri';}
	.st3{font-size:100.6894px;}
</style>
<g id="XMLID_6_">
	<g id="XMLID_2_">
		<path id="XMLID_12_" class="st0" d="M143.6,53.5l-8.8,0l0,80.5c0-27,0-54.1,0-81.1c0,0,0,0,0,0v-8.2C134.8,22.2,116.6,4,94.2,4h0
			C71.7,4,53.5,22.2,53.5,44.7v8.8l-8.8,0C22.2,53.5,4,71.7,4,94.1v0c0,22.5,18.2,40.7,40.7,40.7l8.8,0l0-81.3c0,27.3,0,54.6,0,81.9
			c13.7,0,27.5,0,41.2,0c13.4,0,26.7,0,40.1,0c0-0.2,0-0.4,0-0.6l8.8,0c22.5,0,40.7-18.2,40.7-40.7v0
			C184.3,71.7,166.1,53.5,143.6,53.5z M94.2,130.9c-16.6,0.3-37.9-27.9-40.6-77.4h81.3C131.3,102.7,110.6,130.6,94.2,130.9z"/>
		<path id="XMLID_13_" class="st0" d="M53.5,144.2c0,22.5,18.2,40.7,40.7,40.7h0c22.5,0,40.7-18.2,40.7-40.7v-8.8H53.5V144.2z"/>
	</g>
	<g id="XMLID_1_">
		<path id="XMLID_34_" class="st1" d="M132.7,138.4c0,0,0.9-0.3,2.3-0.8c1.5-0.5,3.6-1,6.2-1.5c2.6-0.5,5.5-0.9,8.7-1.2
			c1.6-0.2,3.3-0.3,4.9-0.3c1.7-0.1,3.4-0.1,5.1-0.1c1.7,0,3.4,0,5.1,0.1c1.7,0.1,3.3,0.2,4.9,0.3c3.2,0.3,6.2,0.7,8.7,1.2
			c2.6,0.5,4.7,1.1,6.2,1.5c1.5,0.5,2.3,0.8,2.3,0.8s-0.9,0.3-2.3,0.8c-1.5,0.5-3.6,1-6.2,1.5c-2.6,0.5-5.5,0.9-8.7,1.2
			c-1.6,0.1-3.3,0.3-4.9,0.3c-1.7,0.1-3.4,0.1-5.1,0.1c-1.7,0-3.4,0-5.1-0.1c-1.7-0.1-3.3-0.2-4.9-0.3c-3.2-0.3-6.2-0.7-8.7-1.2
			c-2.6-0.5-4.7-1.1-6.2-1.5C133.6,138.7,132.7,138.4,132.7,138.4z"/>
	</g>
	<path id="XMLID_4_" class="st0" d="M164.9,126.6"/>
	<text id="XMLID_3_" transform="matrix(1.0523 0 0 1 187.3054 138.3876)" class="st0 st2 st3">UO</text>
</g>
</svg>
